<svg width="32" height="33" viewBox="0 0 32 33" fill="none" xmlns="http://www.w3.org/2000/svg">
<mask id="mask0_1803_2126" style="mask-type:alpha" maskUnits="userSpaceOnUse" x="0" y="0" width="32" height="33">
<rect y="0.859375" width="32" height="32" fill="#D9D9D9"/>
</mask>
<g mask="url(#mask0_1803_2126)">
<path d="M14.6667 26.7593V17.626L6.66667 12.9927V22.126L14.6667 26.7593ZM17.3333 26.7593L25.3333 22.126V12.9927L17.3333 17.626V26.7593ZM16 15.326L23.9 10.7593L16 6.19267L8.1 10.7593L16 15.326ZM5.33333 24.4593C4.91111 24.2149 4.58333 23.8927 4.35 23.4927C4.11667 23.0927 4 22.6482 4 22.1593V11.5593C4 11.0704 4.11667 10.626 4.35 10.226C4.58333 9.826 4.91111 9.50378 5.33333 9.25933L14.6667 3.89267C15.0889 3.64822 15.5333 3.526 16 3.526C16.4667 3.526 16.9111 3.64822 17.3333 3.89267L26.6667 9.25933C27.0889 9.50378 27.4167 9.826 27.65 10.226C27.8833 10.626 28 11.0704 28 11.5593V22.1593C28 22.6482 27.8833 23.0927 27.65 23.4927C27.4167 23.8927 27.0889 24.2149 26.6667 24.4593L17.3333 29.826C16.9111 30.0704 16.4667 30.1927 16 30.1927C15.5333 30.1927 15.0889 30.0704 14.6667 29.826L5.33333 24.4593Z" fill="#74879B"/>
</g>
</svg>
