<svg width="32" height="32" viewBox="0 0 32 32" fill="none" xmlns="http://www.w3.org/2000/svg">
<mask id="mask0_1803_2302" style="mask-type:alpha" maskUnits="userSpaceOnUse" x="0" y="0" width="32" height="32">
<rect width="32" height="32" fill="#D9D9D9"/>
</mask>
<g mask="url(#mask0_1803_2302)">
<path d="M8 29.3333C6.88889 29.3333 5.94444 28.9444 5.16667 28.1666C4.38889 27.3888 4 26.4444 4 25.3333V24C4 23.2666 4.26111 22.6388 4.78333 22.1166C5.30556 21.5944 5.93333 21.3333 6.66667 21.3333H8V5.33329C8 4.59996 8.26111 3.97218 8.78333 3.44996C9.30556 2.92774 9.93333 2.66663 10.6667 2.66663H25.3333C26.0667 2.66663 26.6944 2.92774 27.2167 3.44996C27.7389 3.97218 28 4.59996 28 5.33329V25.3333C28 26.4444 27.6111 27.3888 26.8333 28.1666C26.0556 28.9444 25.1111 29.3333 24 29.3333H8ZM24 26.6666C24.3778 26.6666 24.6944 26.5388 24.95 26.2833C25.2056 26.0277 25.3333 25.7111 25.3333 25.3333V5.33329H10.6667V21.3333H20C20.7333 21.3333 21.3611 21.5944 21.8833 22.1166C22.4056 22.6388 22.6667 23.2666 22.6667 24V25.3333C22.6667 25.7111 22.7944 26.0277 23.05 26.2833C23.3056 26.5388 23.6222 26.6666 24 26.6666ZM13.3333 12C12.9556 12 12.6389 11.8722 12.3833 11.6166C12.1278 11.3611 12 11.0444 12 10.6666C12 10.2888 12.1278 9.97218 12.3833 9.71663C12.6389 9.46107 12.9556 9.33329 13.3333 9.33329H22.6667C23.0444 9.33329 23.3611 9.46107 23.6167 9.71663C23.8722 9.97218 24 10.2888 24 10.6666C24 11.0444 23.8722 11.3611 23.6167 11.6166C23.3611 11.8722 23.0444 12 22.6667 12H13.3333ZM13.3333 16C12.9556 16 12.6389 15.8722 12.3833 15.6166C12.1278 15.3611 12 15.0444 12 14.6666C12 14.2888 12.1278 13.9722 12.3833 13.7166C12.6389 13.4611 12.9556 13.3333 13.3333 13.3333H22.6667C23.0444 13.3333 23.3611 13.4611 23.6167 13.7166C23.8722 13.9722 24 14.2888 24 14.6666C24 15.0444 23.8722 15.3611 23.6167 15.6166C23.3611 15.8722 23.0444 16 22.6667 16H13.3333ZM8 26.6666H20V24H6.66667V25.3333C6.66667 25.7111 6.79444 26.0277 7.05 26.2833C7.30556 26.5388 7.62222 26.6666 8 26.6666ZM8 26.6666H6.66667H20H8Z" fill="#74879B"/>
</g>
</svg>
