<svg width="20" height="20" viewBox="0 0 20 20" fill="none" xmlns="http://www.w3.org/2000/svg">
<mask id="mask0_1803_2167" style="mask-type:alpha" maskUnits="userSpaceOnUse" x="0" y="0" width="20" height="20">
<rect width="20" height="20" fill="#D9D9D9"/>
</mask>
<g mask="url(#mask0_1803_2167)">
<path d="M1.66675 17.5V7.5L8.33342 2.5L12.8126 5.875C12.4654 5.91667 12.139 5.99653 11.8334 6.11458C11.5279 6.23264 11.2362 6.38889 10.9584 6.58333L8.33342 4.58333L3.33341 8.33333V15.8333H6.66675V17.5H1.66675ZM8.33342 17.5V15.9167C8.33342 15.625 8.40633 15.3507 8.55217 15.0938C8.698 14.8368 8.89592 14.6319 9.14592 14.4792C9.7848 14.1042 10.4549 13.8194 11.1563 13.625C11.8577 13.4306 12.5834 13.3333 13.3334 13.3333C14.0834 13.3333 14.8091 13.4306 15.5105 13.625C16.2119 13.8194 16.882 14.1042 17.5209 14.4792C17.7709 14.6319 17.9688 14.8368 18.1147 15.0938C18.2605 15.3507 18.3334 15.625 18.3334 15.9167V17.5H8.33342ZM10.1251 15.8333H16.5417C16.0556 15.5556 15.5417 15.3472 15.0001 15.2083C14.4584 15.0694 13.9029 15 13.3334 15C12.764 15 12.2084 15.0694 11.6667 15.2083C11.1251 15.3472 10.6112 15.5556 10.1251 15.8333ZM13.3334 12.5C12.639 12.5 12.0487 12.2569 11.5626 11.7708C11.0765 11.2847 10.8334 10.6944 10.8334 10C10.8334 9.30556 11.0765 8.71528 11.5626 8.22917C12.0487 7.74306 12.639 7.5 13.3334 7.5C14.0279 7.5 14.6181 7.74306 15.1042 8.22917C15.5904 8.71528 15.8334 9.30556 15.8334 10C15.8334 10.6944 15.5904 11.2847 15.1042 11.7708C14.6181 12.2569 14.0279 12.5 13.3334 12.5ZM13.3334 10.8333C13.5695 10.8333 13.7674 10.7535 13.9272 10.5938C14.0869 10.434 14.1667 10.2361 14.1667 10C14.1667 9.76389 14.0869 9.56597 13.9272 9.40625C13.7674 9.24653 13.5695 9.16667 13.3334 9.16667C13.0973 9.16667 12.8994 9.24653 12.7397 9.40625C12.5799 9.56597 12.5001 9.76389 12.5001 10C12.5001 10.2361 12.5799 10.434 12.7397 10.5938C12.8994 10.7535 13.0973 10.8333 13.3334 10.8333Z" fill="#74879B"/>
</g>
</svg>
